<mxfile host="app.diagrams.net" modified="2022-04-23T08:35:17.432Z" agent="5.0 (Windows NT 10.0; Win64; x64) AppleWebKit/537.36 (KHTML, like Gecko) Chrome/100.0.4896.88 Safari/537.36" etag="tycoS9PSJOQsmkmlNERU" version="17.4.6" type="github">
  <diagram id="l267sjhBJaUG5aCzY53v" name="Page-1">
    <mxGraphModel dx="951" dy="1093" grid="1" gridSize="10" guides="1" tooltips="1" connect="1" arrows="1" fold="1" page="1" pageScale="1" pageWidth="827" pageHeight="1169" math="0" shadow="0">
      <root>
        <mxCell id="0" />
        <mxCell id="1" parent="0" />
        <mxCell id="gjPUnmgcmS56ATMzqNzC-2" value="Slide List" style="rounded=0;whiteSpace=wrap;html=1;fillColor=#fff2cc;strokeColor=#d6b656;" vertex="1" parent="1">
          <mxGeometry x="30" y="140" width="120" height="60" as="geometry" />
        </mxCell>
        <mxCell id="gjPUnmgcmS56ATMzqNzC-14" style="edgeStyle=orthogonalEdgeStyle;rounded=0;orthogonalLoop=1;jettySize=auto;html=1;exitX=1;exitY=0.5;exitDx=0;exitDy=0;entryX=0;entryY=0.5;entryDx=0;entryDy=0;" edge="1" parent="1" source="gjPUnmgcmS56ATMzqNzC-3" target="gjPUnmgcmS56ATMzqNzC-11">
          <mxGeometry relative="1" as="geometry">
            <Array as="points">
              <mxPoint x="320" y="160" />
              <mxPoint x="350" y="160" />
              <mxPoint x="350" y="130" />
            </Array>
          </mxGeometry>
        </mxCell>
        <mxCell id="gjPUnmgcmS56ATMzqNzC-15" style="edgeStyle=orthogonalEdgeStyle;rounded=0;orthogonalLoop=1;jettySize=auto;html=1;exitX=1;exitY=0.75;exitDx=0;exitDy=0;entryX=0;entryY=0.5;entryDx=0;entryDy=0;" edge="1" parent="1" source="gjPUnmgcmS56ATMzqNzC-3" target="gjPUnmgcmS56ATMzqNzC-12">
          <mxGeometry relative="1" as="geometry" />
        </mxCell>
        <mxCell id="gjPUnmgcmS56ATMzqNzC-3" value="Active Slide" style="rounded=0;whiteSpace=wrap;html=1;fillColor=#fff2cc;strokeColor=#d6b656;" vertex="1" parent="1">
          <mxGeometry x="200" y="140" width="120" height="60" as="geometry" />
        </mxCell>
        <mxCell id="gjPUnmgcmS56ATMzqNzC-4" value="1..n" style="endArrow=open;html=1;endSize=12;startArrow=diamondThin;startSize=14;startFill=1;edgeStyle=orthogonalEdgeStyle;align=left;verticalAlign=bottom;rounded=0;" edge="1" parent="1" source="gjPUnmgcmS56ATMzqNzC-2" target="gjPUnmgcmS56ATMzqNzC-3">
          <mxGeometry x="-1" y="3" relative="1" as="geometry">
            <mxPoint x="240" y="470" as="sourcePoint" />
            <mxPoint x="400" y="470" as="targetPoint" />
          </mxGeometry>
        </mxCell>
        <mxCell id="gjPUnmgcmS56ATMzqNzC-5" value="Interactive Slide" style="rounded=0;whiteSpace=wrap;html=1;" vertex="1" parent="1">
          <mxGeometry x="570" y="150" width="120" height="60" as="geometry" />
        </mxCell>
        <mxCell id="gjPUnmgcmS56ATMzqNzC-9" value="Integrated Menu" style="rounded=0;whiteSpace=wrap;html=1;" vertex="1" parent="1">
          <mxGeometry x="570" y="70" width="120" height="60" as="geometry" />
        </mxCell>
        <mxCell id="gjPUnmgcmS56ATMzqNzC-16" style="edgeStyle=orthogonalEdgeStyle;rounded=0;orthogonalLoop=1;jettySize=auto;html=1;exitX=1;exitY=0.5;exitDx=0;exitDy=0;entryX=0;entryY=0.25;entryDx=0;entryDy=0;" edge="1" parent="1" source="gjPUnmgcmS56ATMzqNzC-11" target="gjPUnmgcmS56ATMzqNzC-5">
          <mxGeometry relative="1" as="geometry" />
        </mxCell>
        <mxCell id="gjPUnmgcmS56ATMzqNzC-18" style="edgeStyle=orthogonalEdgeStyle;rounded=0;orthogonalLoop=1;jettySize=auto;html=1;exitX=1;exitY=0.25;exitDx=0;exitDy=0;entryX=0;entryY=0.5;entryDx=0;entryDy=0;" edge="1" parent="1" source="gjPUnmgcmS56ATMzqNzC-11" target="gjPUnmgcmS56ATMzqNzC-9">
          <mxGeometry relative="1" as="geometry" />
        </mxCell>
        <mxCell id="gjPUnmgcmS56ATMzqNzC-11" value="Integrated Slide" style="rounded=0;whiteSpace=wrap;html=1;" vertex="1" parent="1">
          <mxGeometry x="380" y="100" width="120" height="60" as="geometry" />
        </mxCell>
        <mxCell id="gjPUnmgcmS56ATMzqNzC-17" style="edgeStyle=orthogonalEdgeStyle;rounded=0;orthogonalLoop=1;jettySize=auto;html=1;exitX=1;exitY=0.5;exitDx=0;exitDy=0;entryX=0;entryY=0.75;entryDx=0;entryDy=0;" edge="1" parent="1" source="gjPUnmgcmS56ATMzqNzC-12" target="gjPUnmgcmS56ATMzqNzC-5">
          <mxGeometry relative="1" as="geometry" />
        </mxCell>
        <mxCell id="gjPUnmgcmS56ATMzqNzC-20" style="edgeStyle=orthogonalEdgeStyle;rounded=0;orthogonalLoop=1;jettySize=auto;html=1;exitX=1;exitY=0.75;exitDx=0;exitDy=0;entryX=0;entryY=0.5;entryDx=0;entryDy=0;" edge="1" parent="1" source="gjPUnmgcmS56ATMzqNzC-12" target="gjPUnmgcmS56ATMzqNzC-19">
          <mxGeometry relative="1" as="geometry" />
        </mxCell>
        <mxCell id="gjPUnmgcmS56ATMzqNzC-12" value="Modal Slide" style="rounded=0;whiteSpace=wrap;html=1;" vertex="1" parent="1">
          <mxGeometry x="380" y="200" width="120" height="60" as="geometry" />
        </mxCell>
        <mxCell id="gjPUnmgcmS56ATMzqNzC-19" value="Modal Menu" style="rounded=0;whiteSpace=wrap;html=1;" vertex="1" parent="1">
          <mxGeometry x="570" y="230" width="120" height="60" as="geometry" />
        </mxCell>
        <mxCell id="gjPUnmgcmS56ATMzqNzC-21" value="User Component" style="rounded=0;whiteSpace=wrap;html=1;fillColor=#fff2cc;strokeColor=#d6b656;" vertex="1" parent="1">
          <mxGeometry x="20" y="10" width="120" height="30" as="geometry" />
        </mxCell>
        <mxCell id="gjPUnmgcmS56ATMzqNzC-22" value="System Component" style="rounded=0;whiteSpace=wrap;html=1;" vertex="1" parent="1">
          <mxGeometry x="20" y="50" width="120" height="30" as="geometry" />
        </mxCell>
      </root>
    </mxGraphModel>
  </diagram>
</mxfile>
